<?xml version="1.0" encoding="utf-8"?>
<!-- Generator: Adobe Illustrator 24.1.2, SVG Export Plug-In . SVG Version: 6.00 Build 0)  -->
<svg version="1.1" id="Layer_1" xmlns="http://www.w3.org/2000/svg" xmlns:xlink="http://www.w3.org/1999/xlink" x="0px" y="0px"
	 viewBox="0 0 80 80" style="enable-background:new 0 0 80 80;" xml:space="preserve">
<path id="path438" style="fill:none;stroke:#495053;stroke-width:2.6667;stroke-miterlimit:1.3333;" d="M52.86,49.52H26.2"/>
<path id="path440" style="fill:none;stroke:#495053;stroke-width:2.6667;stroke-miterlimit:1.3333;" d="M44.86,40.19h-4"/>
<path id="path442" style="fill:none;stroke:#495053;stroke-width:2.6667;stroke-miterlimit:1.3333;" d="M14.2,38.85h-4"/>
<path id="path444" style="fill:none;stroke:#495053;stroke-width:2.6667;stroke-miterlimit:1.3333;" d="M64.2,49.52c0,2.95-2.39,5.33-5.33,5.33c-2.95,0-5.33-2.39-5.33-5.33c0-2.95,2.39-5.33,5.33-5.33
	C61.81,44.19,64.2,46.58,64.2,49.52z"/>
<path id="path446" style="fill:none;stroke:#495053;stroke-width:2.6667;stroke-miterlimit:1.3333;" d="M26.2,49.52c0,2.95-2.39,5.33-5.33,5.33c-2.95,0-5.33-2.39-5.33-5.33c0-2.95,2.39-5.33,5.33-5.33
	C23.81,44.19,26.2,46.58,26.2,49.52z"/>
<path id="path448" style="fill:none;stroke:#495053;stroke-width:2.6667;stroke-linejoin:round;stroke-miterlimit:1.3333;" d="M38.2,34.85v-8"/>
<path id="path450" style="fill:none;stroke:#495053;stroke-width:2.6667;stroke-linejoin:round;stroke-miterlimit:1.3333;" d="M58.2,34.85h-32l3.4-6.97"/>
<path id="path452" style="fill:none;stroke:#495053;stroke-width:2.6667;stroke-miterlimit:1.3333;" d="M15.53,49.52H14.2c-2.95,0-5.33-2.39-5.33-5.33v-2.67l1.33-2.67v-2.67c0-1.47,1.19-2.67,2.67-2.67
	h2.67l6.14-5.37c2.92-2.55,6.66-3.96,10.54-3.96h7.04c3.63,0,7.16,1.24,10,3.51l8.95,7.16c11.81,2.16,12,5.22,12,5.22v6.78
	c0,1.47-1.19,2.67-2.67,2.67h-4"/>
<path id="path454" style="fill:none;stroke:#495053;stroke-width:2.6667;stroke-linejoin:round;stroke-miterlimit:1.3333;" d="M66.2,41.52h4"/>
</svg>
