<?xml version="1.0" encoding="utf-8"?>
<!-- Generator: Adobe Illustrator 24.1.2, SVG Export Plug-In . SVG Version: 6.00 Build 0)  -->
<svg version="1.1" id="Layer_1" xmlns="http://www.w3.org/2000/svg" xmlns:xlink="http://www.w3.org/1999/xlink" x="0px" y="0px"
	 viewBox="0 0 80 80" style="enable-background:new 0 0 80 80;" xml:space="preserve">
<path id="path654" style="fill:none;stroke:#495053;stroke-width:2.6667;stroke-miterlimit:1.3333;" d="M22.2,56.85c0,1.47-1.19,2.67-2.67,2.67c-1.47,0-2.67-1.19-2.67-2.67c0-1.47,1.19-2.67,2.67-2.67
	C21,54.19,22.2,55.38,22.2,56.85z"/>
<path id="path656" style="fill:none;stroke:#495053;stroke-width:2.6667;stroke-linejoin:round;stroke-miterlimit:1.3333;" d="M27.53,58.19h20l12-19.35V36.2c0-0.35-0.27-0.63-0.62-0.66c-1.69-0.14-6.53-1.76-11.38-14.68h2.67
	c0.74,0,1.33-0.6,1.33-1.33v-4c0-0.74-0.6-1.33-1.33-1.33h-2.67c0,0-1.4,1.7-2.31,2.42c-1.14,0.91-3.03,1.94-3.03,2.91v1.33
	c5.24,10.15,10.69,17.67,6.07,25.26l-3.29,5.41h-5.11c-7.61,0-7.08-9.75-3-14.67"/>
<path id="path658" style="fill:none;stroke:#495053;stroke-width:2.6667;stroke-linejoin:round;stroke-miterlimit:1.3333;" d="M15.23,43.63l4.2-6.77"/>
<path id="path660" style="fill:none;stroke:#495053;stroke-width:2.6667;stroke-linejoin:round;stroke-miterlimit:1.3333;" d="M28.86,54.19c10.03-13.85-20-17.85-20,0H28.86z"/>
<path id="path662" style="fill:none;stroke:#495053;stroke-width:2.6667;stroke-linecap:round;stroke-miterlimit:1.3333;" d="M56.09,44.32l4.94,10.14"/>
<path id="path664" style="fill:none;stroke:#495053;stroke-width:2.6667;stroke-linejoin:round;stroke-miterlimit:1.3333;" d="M64.86,56.85c0,1.47-1.19,2.67-2.67,2.67s-2.67-1.19-2.67-2.67c0-1.47,1.19-2.67,2.67-2.67
	S64.86,55.38,64.86,56.85z"/>
<path id="path666" style="fill:none;stroke:#495053;stroke-width:2.6667;stroke-linejoin:round;stroke-miterlimit:1.3333;" d="M70.2,56.85c0,4.42-3.58,8-8,8s-8-3.58-8-8s3.58-8,8-8S70.2,52.44,70.2,56.85z"/>
<path id="path668" style="fill:none;stroke:#495053;stroke-width:2.6667;stroke-linejoin:round;stroke-miterlimit:1.3333;" d="M27.08,54.19c0.29,0.83,0.45,1.73,0.45,2.67c0,4.42-3.58,8-8,8c-4.42,0-8-3.58-8-8
	c0-0.93,0.16-1.83,0.45-2.67"/>
<path id="path670" style="fill:none;stroke:#495053;stroke-width:2.6667;stroke-linejoin:round;stroke-miterlimit:1.3333;" d="M34.2,32.85h-7.17c-1.43,0-2.86-0.23-4.22-0.68c-1.67-0.56-5.46-1.43-6.73,0.61l-2.52,4.07h23.3
	v-1.33C36.86,34.05,35.67,32.85,34.2,32.85z"/>
<path id="path672" style="fill:none;stroke:#495053;stroke-width:2.6667;stroke-linejoin:round;stroke-miterlimit:1.3333;" d="M38.2,16.85h6.67"/>
</svg>
