<?xml version="1.0" encoding="utf-8"?>
<!-- Generator: Adobe Illustrator 24.1.2, SVG Export Plug-In . SVG Version: 6.00 Build 0)  -->
<svg version="1.1" id="Layer_1" xmlns="http://www.w3.org/2000/svg" xmlns:xlink="http://www.w3.org/1999/xlink" x="0px" y="0px"
	 viewBox="0 0 80 80" style="enable-background:new 0 0 80 80;" xml:space="preserve">
<path id="path416"
	style="fill:none;stroke:#495053;stroke-width:2.6667;stroke-miterlimit:1.3333;"
	d="M12.86,40.19h-4"/>
<path id="path418"
	style="fill:none;stroke:#495053;stroke-width:2.6667;stroke-miterlimit:1.3333;"
	d="M52.86,50.85H26.2"/>
<path id="path420"
	style="fill:none;stroke:#495053;stroke-width:2.6667;stroke-miterlimit:1.3333;"
	d="M64.86,50.19c0,3.31-2.69,6-6,6s-6-2.69-6-6s2.69-6,6-6S64.86,46.87,64.86,50.19z"/>
<path id="path422"
	style="fill:none;stroke:#495053;stroke-width:2.6667;stroke-miterlimit:1.3333;"
	d="M26.86,50.19c0,3.31-2.69,6-6,6s-6-2.69-6-6s2.69-6,6-6S26.86,46.87,26.86,50.19z"/>
<path id="path424"
	style="fill:none;stroke:#495053;stroke-width:2.6667;stroke-miterlimit:1.3333;"
	d="M43.53,40.19h-4"/>
<path id="path426"
	style="fill:none;stroke:#495053;stroke-width:2.6667;stroke-miterlimit:1.3333;"
	d="M70.2,40.19h-4"/>
<path id="path428"
	style="fill:none;stroke:#495053;stroke-width:2.6667;stroke-linejoin:round;stroke-miterlimit:1.3333;"
	d="M57.92,51.13l1.89-1.89"/>
<path id="path430"
	style="fill:none;stroke:#495053;stroke-width:2.6667;stroke-linejoin:round;stroke-miterlimit:1.3333;"
	d="M19.92,51.13l1.89-1.89"/>
<path id="path432"
	style="fill:none;stroke:#495053;stroke-width:2.6667;stroke-linejoin:round;stroke-miterlimit:1.3333;"
	d="M58.2,34.85H8.86v13.33c0,1.47,1.19,2.67,2.67,2.67h2.67"/>
<path id="path434"
	style="fill:none;stroke:#495053;stroke-width:2.6667;stroke-linejoin:round;stroke-miterlimit:1.3333;"
	d="M34.2,50.85v-28h10.94c1.52,0,2.97,0.65,3.99,1.79l9.08,10.21l9.63,1.07
	c1.35,0.15,2.37,1.29,2.37,2.65v10.95c0,0.74-0.6,1.33-1.33,1.33h-4"/>
<path id="path436"
	style="fill:none;stroke:#495053;stroke-width:2.6667;stroke-linejoin:round;stroke-miterlimit:1.3333;"
	d="M40.86,34.85v-12"/>
</svg>
