<?xml version="1.0" encoding="utf-8"?>
<svg version="1.1" id="Layer_1" xmlns="http://www.w3.org/2000/svg" xmlns:xlink="http://www.w3.org/1999/xlink" x="0px" y="0px"
	viewBox="0 0 100 100" style="enable-background:new 0 0 100 100;" xml:space="preserve">
<path id="path144" stroke="#000" style="fill:none;stroke-width:2.6667;stroke-miterlimit:1.3333;" d="M63.76,63.33h-24"/>
	<path id="path146" stroke="#000" style="fill:none;stroke-width:2.6667;stroke-miterlimit:1.3333;" d="M75.76,54h5.33"/>
	<path id="path148" stroke="#000" style="fill:none;stroke-width:2.6667;stroke-linejoin:round;stroke-miterlimit:1.3333;" d="M29.09,63.33h-9.33V54h38.67"/>
	<path id="path150" stroke="#000" style="fill:none;stroke-width:2.6667;stroke-miterlimit:1.3333;" d="M74.43,63.33c0,2.95-2.39,5.33-5.33,5.33s-5.33-2.39-5.33-5.33S66.15,58,69.09,58
	S74.43,60.38,74.43,63.33z"/>
	<path id="path152" stroke="#000" style="fill:none;stroke-width:2.6667;stroke-miterlimit:1.3333;" d="M39.76,63.33c0,2.95-2.39,5.33-5.33,5.33c-2.95,0-5.33-2.39-5.33-5.33S31.48,58,34.43,58
	C37.37,58,39.76,60.38,39.76,63.33z"/>
	<path id="path154" stroke="#000" style="fill:none;stroke-width:2.6667;stroke-linejoin:round;stroke-miterlimit:1.3333;" d="M77.09,46h-12v-9.33h8"/>
	<path id="path156" stroke="#000" style="fill:none;stroke-width:2.6667;stroke-linejoin:round;stroke-miterlimit:1.3333;" d="M50.43,54H39.76V42h10.67V54z"/>
	<path id="path158" stroke="#000" style="fill:none;stroke-width:2.6667;stroke-linejoin:round;stroke-miterlimit:1.3333;" d="M39.76,54H25.09V42h14.67V54z"/>
	<path id="path160" stroke="#000" style="fill:none;stroke-width:2.6667;stroke-linejoin:round;stroke-miterlimit:1.3333;" d="M46.43,42H35.76V31.33h10.67V42z"/>
	<path id="path162" stroke="#000" style="fill:none;stroke-width:2.6667;stroke-linejoin:round;stroke-miterlimit:1.3333;" d="M35.76,42h-6.67V31.33h6.67V42z"/>
	<path id="path164" stroke="#000" style="fill:none;stroke-width:2.6667;stroke-linejoin:round;stroke-miterlimit:1.3333;" d="M74.43,63.33h6.67V49.38c0-0.45-0.22-0.86-0.59-1.11L77.09,46l-5.96-13.1
	c-0.43-0.95-1.38-1.56-2.43-1.56H57.09v32"/>
</svg>
