<?xml version="1.0" encoding="utf-8"?>
<svg version="1.1" id="Layer_1" xmlns="http://www.w3.org/2000/svg" xmlns:xlink="http://www.w3.org/1999/xlink" x="0px" y="0px"
	viewBox="0 0 80 80" style="enable-background:new 0 0 80 80;" xml:space="preserve">
<path id="path98" stroke="#000" style="fill:none;stroke-width:2.6667;stroke-miterlimit:1.3333;" d="M54.2,55.52H39.53"/>
	<path id="path100" stroke="#000" style="fill:none;stroke-width:2.6667;stroke-miterlimit:1.3333;" d="M64.86,46.19h5.33"/>
	<path id="path102" stroke="#000" style="fill:none;stroke-width:2.6667;stroke-linejoin:round;stroke-miterlimit:1.3333;" d="M28.86,55.52h-4"/>
	<path id="path104" stroke="#000" style="fill:none;stroke-width:2.6667;stroke-miterlimit:1.3333;" d="M64.86,55.52c0,2.95-2.39,5.33-5.33,5.33c-2.95,0-5.33-2.39-5.33-5.33s2.39-5.33,5.33-5.33
	C62.48,50.19,64.86,52.58,64.86,55.52z"/>
	<path id="path106" stroke="#000" style="fill:none;stroke-width:2.6667;stroke-miterlimit:1.3333;" d="M24.86,55.52c0,2.95-2.39,5.33-5.33,5.33s-5.33-2.39-5.33-5.33s2.39-5.33,5.33-5.33
	S24.86,52.58,24.86,55.52z"/>
	<path id="path108" stroke="#000" style="fill:none;stroke-width:2.6667;stroke-miterlimit:1.3333;" d="M39.53,55.52c0,2.95-2.39,5.33-5.33,5.33c-2.95,0-5.33-2.39-5.33-5.33s2.39-5.33,5.33-5.33
	C37.14,50.19,39.53,52.58,39.53,55.52z"/>
	<path id="path110" stroke="#000" style="fill:none;stroke-width:2.6667;stroke-linejoin:round;stroke-miterlimit:1.3333;" d="M64.86,55.52h5.33V40.85L65.44,25.4c-0.34-1.12-1.38-1.88-2.55-1.88H50.2"/>
	<path id="path112" stroke="#000" style="fill:none;stroke-width:2.6667;stroke-linejoin:round;stroke-miterlimit:1.3333;" d="M70.2,40.85l-12-4v-8h8"/>
	<path id="path114" stroke="#000" style="fill:none;stroke-width:2.6667;stroke-linejoin:round;stroke-miterlimit:1.3333;" d="M14.2,55.52H8.86V18.19H50.2v37.33"/>
	<path id="path116" stroke="#000" style="fill:none;stroke-width:2.6667;stroke-linejoin:round;stroke-miterlimit:1.3333;" d="M50.2,47.52H8.86"/>
</svg>
